<?xml version="1.0" encoding="UTF-8" standalone="no"?>
<!DOCTYPE svg PUBLIC "-//W3C//DTD SVG 1.1//EN"
 "http://www.w3.org/Graphics/SVG/1.1/DTD/svg11.dtd">
<!-- Generated by graphviz version 2.46.0 (20210118.1747)
 -->
<!-- Title: ER Pages: 1 -->
<svg width="138pt" height="404pt"
 viewBox="0.00 0.00 138.00 404.00" xmlns="http://www.w3.org/2000/svg" xmlns:xlink="http://www.w3.org/1999/xlink">
<g id="graph0" class="graph" transform="scale(1 1) rotate(0) translate(4 400)">
<title>ER</title>
<polygon fill="white" stroke="transparent" points="-4,4 -4,-400 134,-400 134,4 -4,4"/>
<!-- Input -->
<g id="node1" class="node">
<title>Input</title>
<polygon fill="none" stroke="black" points="54,-108 0,-108 0,-72 54,-72 54,-108"/>
<text text-anchor="start" x="10" y="-93.8" font-family="Times New Roman,serif" font-weight="bold" text-decoration="underline" font-size="14.00" fill="BLUE">I</text>
<text text-anchor="start" x="16" y="-93.8" font-family="Times New Roman,serif" font-size="14.00" fill="BLUE">nput:</text>
<text text-anchor="start" x="12" y="-79.8" font-family="Times New Roman,serif" font-size="14.00">Input</text>
</g>
<!-- Effect -->
<g id="node4" class="node">
<title>Effect</title>
<polygon fill="none" stroke="black" points="113,-180 15,-180 15,-144 113,-144 113,-180"/>
<text text-anchor="start" x="44.5" y="-165.8" font-family="Times New Roman,serif" font-weight="bold" text-decoration="underline" font-size="14.00" fill="BLUE">E</text>
<text text-anchor="start" x="54.5" y="-165.8" font-family="Times New Roman,serif" font-size="14.00" fill="BLUE">ffect:</text>
<text text-anchor="start" x="23" y="-151.8" font-family="Times New Roman,serif" font-size="14.00">Physical effect</text>
</g>
<!-- Input&#45;&gt;Effect -->
<g id="edge6" class="edge">
<title>Input&#45;&gt;Effect</title>
<path fill="none" stroke="black" d="M36.15,-108.3C40.4,-116.36 45.56,-126.11 50.27,-135.02"/>
<polygon fill="black" stroke="black" points="47.19,-136.69 54.96,-143.9 53.38,-133.42 47.19,-136.69"/>
</g>
<!-- Part -->
<g id="node2" class="node">
<title>Part</title>
<polygon fill="none" stroke="black" points="128,-36 74,-36 74,0 128,0 128,-36"/>
<text text-anchor="start" x="87" y="-21.8" font-family="Times New Roman,serif" font-weight="bold" text-decoration="underline" font-size="14.00" fill="BLUE">P</text>
<text text-anchor="start" x="97" y="-21.8" font-family="Times New Roman,serif" font-size="14.00" fill="BLUE">art:</text>
<text text-anchor="start" x="89.5" y="-7.8" font-family="Times New Roman,serif" font-size="14.00">Part</text>
</g>
<!-- oRgan -->
<g id="node3" class="node">
<title>oRgan</title>
<polygon fill="none" stroke="black" points="130,-108 72,-108 72,-72 130,-72 130,-108"/>
<text text-anchor="start" x="80" y="-93.8" font-family="Times New Roman,serif" font-size="14.00" fill="BLUE">o</text>
<text text-anchor="start" x="88" y="-93.8" font-family="Times New Roman,serif" font-weight="bold" text-decoration="underline" font-size="14.00" fill="BLUE">R</text>
<text text-anchor="start" x="99" y="-93.8" font-family="Times New Roman,serif" font-size="14.00" fill="BLUE">gan:</text>
<text text-anchor="start" x="82.5" y="-79.8" font-family="Times New Roman,serif" font-size="14.00">oRgan</text>
</g>
<!-- Part&#45;&gt;oRgan -->
<g id="edge5" class="edge">
<title>Part&#45;&gt;oRgan</title>
<path fill="none" stroke="black" d="M101,-36.3C101,-44.02 101,-53.29 101,-61.89"/>
<polygon fill="black" stroke="black" points="97.5,-61.9 101,-71.9 104.5,-61.9 97.5,-61.9"/>
</g>
<!-- oRgan&#45;&gt;Effect -->
<g id="edge4" class="edge">
<title>oRgan&#45;&gt;Effect</title>
<path fill="none" stroke="black" d="M91.85,-108.3C87.6,-116.36 82.44,-126.11 77.73,-135.02"/>
<polygon fill="black" stroke="black" points="74.62,-133.42 73.04,-143.9 80.81,-136.69 74.62,-133.42"/>
</g>
<!-- Phenomena -->
<g id="node5" class="node">
<title>Phenomena</title>
<polygon fill="none" stroke="black" points="107,-252 21,-252 21,-216 107,-216 107,-252"/>
<text text-anchor="start" x="29" y="-237.8" font-family="Times New Roman,serif" font-weight="bold" text-decoration="underline" font-size="14.00" fill="BLUE">Ph</text>
<text text-anchor="start" x="46" y="-237.8" font-family="Times New Roman,serif" font-size="14.00" fill="BLUE">enomena:</text>
<text text-anchor="start" x="31.5" y="-223.8" font-family="Times New Roman,serif" font-size="14.00">Phenomena</text>
</g>
<!-- Effect&#45;&gt;Phenomena -->
<g id="edge3" class="edge">
<title>Effect&#45;&gt;Phenomena</title>
<path fill="none" stroke="black" d="M64,-180.3C64,-188.02 64,-197.29 64,-205.89"/>
<polygon fill="black" stroke="black" points="60.5,-205.9 64,-215.9 67.5,-205.9 60.5,-205.9"/>
</g>
<!-- State change -->
<g id="node6" class="node">
<title>State change</title>
<polygon fill="none" stroke="black" points="109.5,-324 18.5,-324 18.5,-288 109.5,-288 109.5,-324"/>
<text text-anchor="start" x="26.5" y="-309.8" font-family="Times New Roman,serif" font-weight="bold" text-decoration="underline" font-size="14.00" fill="BLUE">S</text>
<text text-anchor="start" x="35.5" y="-309.8" font-family="Times New Roman,serif" font-size="14.00" fill="BLUE">tate change:</text>
<text text-anchor="start" x="27" y="-295.8" font-family="Times New Roman,serif" font-size="14.00">State Change</text>
</g>
<!-- Phenomena&#45;&gt;State change -->
<g id="edge2" class="edge">
<title>Phenomena&#45;&gt;State change</title>
<path fill="none" stroke="black" d="M64,-252.3C64,-260.02 64,-269.29 64,-277.89"/>
<polygon fill="black" stroke="black" points="60.5,-277.9 64,-287.9 67.5,-277.9 60.5,-277.9"/>
</g>
<!-- Action -->
<g id="node7" class="node">
<title>Action</title>
<polygon fill="none" stroke="black" points="92.5,-396 35.5,-396 35.5,-360 92.5,-360 92.5,-396"/>
<text text-anchor="start" x="43.5" y="-381.8" font-family="Times New Roman,serif" font-weight="bold" text-decoration="underline" font-size="14.00" fill="BLUE">A</text>
<text text-anchor="start" x="53.5" y="-381.8" font-family="Times New Roman,serif" font-size="14.00" fill="BLUE">ction:</text>
<text text-anchor="start" x="45" y="-367.8" font-family="Times New Roman,serif" font-size="14.00">Action</text>
</g>
<!-- State change&#45;&gt;Action -->
<g id="edge1" class="edge">
<title>State change&#45;&gt;Action</title>
<path fill="none" stroke="black" d="M64,-324.3C64,-332.02 64,-341.29 64,-349.89"/>
<polygon fill="black" stroke="black" points="60.5,-349.9 64,-359.9 67.5,-349.9 60.5,-349.9"/>
</g>
</g>
</svg>
